# xmcd
#
# Track frame offsets:
#	150
#	15824
#	34722
#	56621
#	72370
#	95018
#	112717
#	131016
#	148639
#	173163
#
# Disc length: 2570 seconds
#
# Revision: 0
# Processed by: cddbd v1.5.2PL0 Copyright (c) Steve Scherf et al.
# Submitted via: dBpowerAMP V4.0
#
DISCID=7d0a080a
DTITLE=Spirit Lost - The New Beginning
DYEAR=2008
DGENRE=Rock/Pop
TTITLE0=Alone
TTITLE1=The Journey Of A Lifetime
TTITLE2=The Misery Of A Wounded Heart
TTITLE3=Pieces Of The Staind Glass Mind
TTITLE4=Lost Soul
TTITLE5=Soul Seeker (Can't Stop)
TTITLE6=Mistrust
TTITLE7=A Wolf In Sheep's Clothing
TTITLE8=The Burden Of Life
TTITLE9=Dreams
EXTD=
EXTT0=
EXTT1=
EXTT2=
EXTT3=
EXTT4=
EXTT5=
EXTT6=
EXTT7=
EXTT8=
EXTT9=
PLAYORDER=
